<svg width="53" height="58" xmlns="http://www.w3.org/2000/svg" xmlns:xlink="http://www.w3.org/1999/xlink" xml:space="preserve" overflow="hidden"><defs><clipPath id="clip0"><rect x="0" y="0" width="53" height="58"/></clipPath><linearGradient x1="11.632" y1="37.9697" x2="64.3074" y2="37.9697" gradientUnits="userSpaceOnUse" spreadMethod="pad" id="fill1"><stop offset="0" stop-color="#CBE9E4"/><stop offset="1" stop-color="#98B4AF"/></linearGradient><linearGradient x1="27.0743" y1="16.4485" x2="48.8652" y2="54.1904" gradientUnits="userSpaceOnUse" spreadMethod="pad" id="fill2"><stop offset="0" stop-color="#CBE9E4"/><stop offset="1" stop-color="#98B4AF"/></linearGradient><linearGradient x1="34.86" y1="64.3682" x2="41.1915" y2="53.4025" gradientUnits="userSpaceOnUse" spreadMethod="pad" id="fill3"><stop offset="0" stop-color="#CBE9E4"/><stop offset="1" stop-color="#98B4AF"/></linearGradient></defs><g clip-path="url(#clip0)"><path d="M35.2682 66.9577C33.6886 66.9577 32.4053 65.6725 32.4053 64.0948L32.4053 61.0648C26.8104 59.8593 21.7225 56.8312 17.9673 52.4495 13.8836 47.6862 11.6339 41.6015 11.6339 35.3175 11.6339 20.7941 23.4482 8.97984 37.9716 8.97984 52.4951 8.97984 64.3093 20.7941 64.3093 35.3175 64.3093 41.6015 62.0596 47.6843 57.976 52.4495 54.2189 56.8312 49.1309 59.8574 43.538 61.0648L43.538 64.0948C43.538 65.6743 42.2527 66.9577 40.6751 66.9577L35.272 66.9577Z" fill="url(#fill1)" transform="matrix(1.00616 0 0 1 -11.7056 -8.96878)"/><path d="M62.7887 35.3194C62.7887 21.6124 51.6768 10.5005 37.9697 10.5005 24.2627 10.5005 13.1508 21.6124 13.1508 35.3194 13.1508 47.6482 22.142 57.8754 33.9241 59.808L33.9241 64.0948C33.9241 64.8371 34.5259 65.4389 35.2682 65.4389L40.6713 65.4389C41.4136 65.4389 42.0154 64.8371 42.0154 64.0948L42.0154 59.808C53.7974 57.8754 62.7887 47.6482 62.7887 35.3194Z" fill="#FFFFFF" transform="matrix(1.00616 0 0 1 -11.7056 -8.96878)"/><path d="M53.3722 19.917C49.2581 15.803 43.7886 13.5381 37.9697 13.5381 32.1509 13.5381 26.6813 15.803 22.5673 19.917 18.4533 24.031 16.1884 29.5006 16.1884 35.3194 16.1884 41.1383 18.4533 46.6078 22.5673 50.7219 26.6813 54.8359 32.1509 57.1008 37.9697 57.1008 43.7886 57.1008 49.2581 54.8359 53.3722 50.7219 57.4862 46.6078 59.7511 41.1383 59.7511 35.3194 59.7511 29.5006 57.4862 24.031 53.3722 19.917Z" fill="url(#fill2)" transform="matrix(1.00616 0 0 1 -11.7056 -8.96878)"/><path d="M37.9697 10.5005C24.2627 10.5005 13.1508 21.6124 13.1508 35.3194 13.1508 49.0265 24.2627 60.1384 37.9697 60.1384 51.6768 60.1384 62.7887 49.0265 62.7887 35.3194 62.7887 21.6124 51.6768 10.5005 37.9697 10.5005ZM22.5673 19.917C26.6813 15.803 32.1509 13.5381 37.9697 13.5381 43.7886 13.5381 49.2581 15.803 53.3722 19.917 57.4862 24.031 59.7511 29.5006 59.7511 35.3194 59.7511 39.8929 58.35 44.2518 55.7529 47.9064L20.1866 47.9064C17.5895 44.2518 16.1884 39.8948 16.1884 35.3194 16.1884 29.5006 18.4533 24.031 22.5673 19.917ZM37.3091 57.0894C37.5293 57.0932 37.7476 57.0989 37.9678 57.0989 38.1881 57.0989 38.4083 57.0932 38.6266 57.0894 38.4064 57.0951 38.1881 57.1008 37.9678 57.1008 37.7476 57.1008 37.5274 57.097 37.3091 57.0894Z" fill="#0F2D53" transform="matrix(1.00616 0 0 1 -11.7056 -8.96878)"/><path d="M40.6713 52.4248 35.2682 52.4248C34.5259 52.4248 33.9241 53.0266 33.9241 53.7689L33.9241 64.0948C33.9241 64.8371 34.5259 65.4389 35.2682 65.4389L40.6713 65.4389C41.4136 65.4389 42.0154 64.8371 42.0154 64.0948L42.0154 53.7689C42.0154 53.0266 41.4136 52.4248 40.6713 52.4248ZM41.2085 64.0473C41.2085 64.3435 40.9674 64.5846 40.6713 64.5846L35.3802 64.5846C35.084 64.5846 34.8429 64.3435 34.8429 64.0473L34.8429 53.7234C34.8429 53.4272 35.084 53.1861 35.3802 53.1861L37.2217 53.1861 37.2217 54.1733 36.7338 54.1733C36.6731 53.917 36.4434 53.7253 36.1681 53.7253 35.8472 53.7253 35.5852 53.9854 35.5852 54.3081 35.5852 54.6309 35.8453 54.8909 36.1681 54.8909 36.4434 54.8909 36.6731 54.6992 36.7338 54.4429L37.3565 54.4429C37.4306 54.4429 37.4913 54.3822 37.4913 54.3081L37.4913 53.1861 37.8919 53.1861 37.8919 55.2441C37.6356 55.3048 37.4439 55.5345 37.4439 55.8098 37.4439 55.9009 37.4666 55.9845 37.5027 56.0604L36.5231 56.854C36.4244 56.778 36.3029 56.7306 36.17 56.7306 35.8491 56.7306 35.5871 56.9907 35.5871 57.3134 35.5871 57.6362 35.8472 57.8962 36.17 57.8962 36.4927 57.8962 36.7528 57.6362 36.7528 57.3134 36.7528 57.2223 36.73 57.1388 36.694 57.0628L37.6736 56.2692C37.7723 56.3452 37.8938 56.3926 38.0267 56.3926 38.3475 56.3926 38.6095 56.1326 38.6095 55.8098 38.6095 55.5345 38.4178 55.3048 38.1615 55.2441L38.1615 53.1861 38.5241 53.1861 38.5241 54.3081C38.5241 54.3822 38.5848 54.4429 38.6589 54.4429L39.2265 54.4429C39.2778 54.6555 39.4449 54.8226 39.6575 54.8739L39.6575 56.7496C39.4012 56.8103 39.2094 57.04 39.2094 57.3153 39.2094 57.6362 39.4695 57.8981 39.7923 57.8981 40.115 57.8981 40.3751 57.6381 40.3751 57.3153 40.3751 57.04 40.1834 56.8103 39.9271 56.7496L39.9271 54.872C40.1834 54.8112 40.3751 54.5815 40.3751 54.3062 40.3751 53.9854 40.115 53.7234 39.7923 53.7234 39.517 53.7234 39.2873 53.9151 39.2265 54.1714L38.7918 54.1714 38.7918 53.1842 40.6713 53.1842C40.9674 53.1842 41.2085 53.4253 41.2085 53.7215L41.2085 64.0454Z" fill="#0F2D53" transform="matrix(1.00616 0 0 1 -11.7056 -8.96878)"/><path d="M40.6713 53.1861 38.7918 53.1861 38.7918 54.1733 39.2265 54.1733C39.2873 53.917 39.517 53.7253 39.7923 53.7253 40.1131 53.7253 40.3751 53.9854 40.3751 54.3081 40.3751 54.5834 40.1834 54.8131 39.9271 54.8739L39.9271 56.7515C40.1834 56.8122 40.3751 57.0419 40.3751 57.3172 40.3751 57.6381 40.115 57.9 39.7923 57.9 39.4695 57.9 39.2094 57.6399 39.2094 57.3172 39.2094 57.0419 39.4012 56.8122 39.6575 56.7515L39.6575 54.8758C39.4449 54.8245 39.2778 54.6574 39.2265 54.4448L38.6589 54.4448C38.5848 54.4448 38.5241 54.384 38.5241 54.31L38.5241 53.188 38.1615 53.188 38.1615 55.246C38.4178 55.3067 38.6095 55.5364 38.6095 55.8117 38.6095 56.1326 38.3494 56.3945 38.0267 56.3945 37.8938 56.3945 37.7704 56.3471 37.6736 56.2711L36.694 57.0647C36.73 57.1407 36.7528 57.2261 36.7528 57.3153 36.7528 57.6362 36.4927 57.8981 36.17 57.8981 35.8472 57.8981 35.5871 57.6381 35.5871 57.3153 35.5871 56.9926 35.8472 56.7325 36.17 56.7325 36.3029 56.7325 36.4263 56.7799 36.5231 56.8559L37.5027 56.0623C37.4666 55.9864 37.4439 55.9009 37.4439 55.8117 37.4439 55.5364 37.6356 55.3067 37.8919 55.246L37.8919 53.188 37.4913 53.188 37.4913 54.31C37.4913 54.384 37.4306 54.4448 37.3565 54.4448L36.7338 54.4448C36.6731 54.7011 36.4434 54.8928 36.1681 54.8928 35.8472 54.8928 35.5852 54.6327 35.5852 54.31 35.5852 53.9873 35.8453 53.7272 36.1681 53.7272 36.4434 53.7272 36.6731 53.9189 36.7338 54.1752L37.2217 54.1752 37.2217 53.188 35.3802 53.188C35.084 53.188 34.8429 53.4291 34.8429 53.7253L34.8429 64.0492C34.8429 64.3454 35.084 64.5865 35.3802 64.5865L40.6713 64.5865C40.9674 64.5865 41.2085 64.3454 41.2085 64.0492L41.2085 53.7253C41.2085 53.4291 40.9674 53.188 40.6713 53.188ZM39.7904 62.1375 36.7889 63.6942C36.7509 63.7151 36.7072 63.7246 36.6655 63.7246 36.6161 63.7246 36.5686 63.7113 36.525 63.6847 36.4452 63.6354 36.3959 63.548 36.3959 63.455L36.3959 60.3415C36.3959 60.2485 36.4452 60.1611 36.525 60.1118 36.6047 60.0624 36.7053 60.0605 36.7889 60.1023L39.7904 61.659C39.8796 61.7046 39.9347 61.7976 39.9347 61.8983 39.9347 61.9989 39.8796 62.09 39.7904 62.1375ZM40.696 59.1663 35.3726 59.1663C35.2682 59.1663 35.1847 59.0828 35.1847 58.9784 35.1847 58.874 35.2682 58.7904 35.3726 58.7904L40.696 58.7904C40.8004 58.7904 40.8839 58.874 40.8839 58.9784 40.8839 59.0828 40.8004 59.1663 40.696 59.1663Z" fill="url(#fill3)" transform="matrix(1.00616 0 0 1 -11.7056 -8.96878)"/><path d="M40.696 58.7885 35.3726 58.7885C35.2682 58.7885 35.1847 58.8721 35.1847 58.9765 35.1847 59.0809 35.2682 59.1644 35.3726 59.1644L40.696 59.1644C40.8004 59.1644 40.8839 59.0809 40.8839 58.9765 40.8839 58.8721 40.8004 58.7885 40.696 58.7885Z" fill="#0F2D53" transform="matrix(1.00616 0 0 1 -11.7056 -8.96878)"/><path d="M39.7904 61.659 36.7889 60.1023C36.7053 60.0586 36.6066 60.0624 36.525 60.1118 36.4452 60.1611 36.3959 60.2485 36.3959 60.3415L36.3959 63.455C36.3959 63.548 36.4452 63.6354 36.525 63.6847 36.5686 63.7113 36.6161 63.7246 36.6655 63.7246 36.7072 63.7246 36.7509 63.7151 36.7889 63.6942L39.7904 62.1375C39.8796 62.0919 39.9347 61.9989 39.9347 61.8983 39.9347 61.7976 39.8796 61.7065 39.7904 61.659Z" fill="#0F2D53" transform="matrix(1.00616 0 0 1 -11.7056 -8.96878)"/><path d="M35.851 43.6177 35.851 48.6715 18.3071 48.6715 18.3071 44.679 26.7421 36.7927C27.5565 36.02 28.1052 35.3612 28.3843 34.8125 28.6633 34.2658 28.8019 33.7133 28.8019 33.1552 28.8019 32.4262 28.5551 31.8566 28.0615 31.4484 27.5679 31.0403 26.8484 30.8371 25.9049 30.8371 25.0676 30.8371 24.3006 31.0251 23.6039 31.401 22.9071 31.7769 22.3319 32.3179 21.882 33.0261L17.149 30.3872C18.028 28.9272 19.262 27.7806 20.8511 26.9433 22.4382 26.1061 24.3158 25.6884 26.4839 25.6884 28.2001 25.6884 29.7189 25.9675 31.0384 26.5257 32.3578 27.0838 33.3887 27.8831 34.1291 28.9234 34.8695 29.9638 35.2397 31.1713 35.2397 32.5458 35.2397 33.7684 34.9777 34.9227 34.4518 36.0067 33.926 37.0907 32.9122 38.3191 31.4105 39.6936L27.1616 43.6215 35.8529 43.6215Z" fill="#0F2D53" transform="matrix(1.00616 0 0 1 -11.7056 -8.96878)"/><path d="M58.8037 44.3581 55.4567 44.3581 55.4567 48.6715 49.2429 48.6715 49.2429 44.3581 37.3318 44.3581 37.3318 40.2062 47.4394 26.1384 54.0385 26.1384 44.8631 39.3044 49.4347 39.3044 49.4347 35.4732 55.4548 35.4732 55.4548 39.3044 58.8018 39.3044 58.8018 44.3581Z" fill="#0F2D53" transform="matrix(1.00616 0 0 1 -11.7056 -8.96878)"/></g></svg>