<svg width="52" height="58" xmlns="http://www.w3.org/2000/svg" xmlns:xlink="http://www.w3.org/1999/xlink" xml:space="preserve" overflow="hidden"><defs><clipPath id="clip0"><rect x="0" y="0" width="52" height="58"/></clipPath><linearGradient x1="0" y1="28.6168" x2="52" y2="28.6168" gradientUnits="userSpaceOnUse" spreadMethod="pad" id="fill1"><stop offset="0" stop-color="#C78093"/><stop offset="1" stop-color="#982852"/></linearGradient><linearGradient x1="15.2445" y1="7.3707" x2="36.7557" y2="44.6295" gradientUnits="userSpaceOnUse" spreadMethod="pad" id="fill2"><stop offset="0" stop-color="#C78093"/><stop offset="1" stop-color="#982852"/></linearGradient><linearGradient x1="22.9301" y1="54.6771" x2="29.1804" y2="43.8514" gradientUnits="userSpaceOnUse" spreadMethod="pad" id="fill3"><stop offset="0" stop-color="#C78093"/><stop offset="1" stop-color="#982852"/></linearGradient></defs><g clip-path="url(#clip0)"><path d="M23.3327 57.2336C21.7741 57.2336 20.5062 55.9656 20.5062 54.407L20.5062 51.4161C14.9836 50.2253 9.96062 47.2373 6.2524 42.9122 2.22042 38.209 0 32.2029 0 26.0001 0 11.6636 11.6636 0 26.0001 0 40.3367 0 52 11.6636 52 26.0001 52 32.2029 49.7796 38.209 45.7477 42.9122 42.0395 47.2373 37.0164 50.2253 31.4939 51.4161L31.4939 54.407C31.4939 55.9656 30.2259 57.2336 28.6674 57.2336L23.3327 57.2336Z" fill="url(#fill1)" transform="matrix(1 0 0 1.01221 0 0.0337541)"/><path d="M50.5008 26.0001C50.5008 12.4687 39.5314 1.49935 26.0001 1.49935 12.4687 1.49935 1.49935 12.4687 1.49935 26.0001 1.49935 38.1709 10.3744 48.2672 22.0055 50.1748L22.0055 54.407C22.0055 55.14 22.5997 55.7342 23.3327 55.7342L28.6674 55.7342C29.4005 55.7342 29.9947 55.14 29.9947 54.407L29.9947 50.1748C41.6257 48.2672 50.5008 38.1709 50.5008 26.0001Z" fill="#FFFFFF" transform="matrix(1 0 0 1.01221 0 0.0337541)"/><path d="M41.2043 10.7958C37.1432 6.73458 31.7435 4.49799 26.0001 4.49799 20.2567 4.49799 14.857 6.73458 10.7958 10.7958 6.7346 14.857 4.49799 20.2567 4.49799 26.0001 4.49799 31.7435 6.7346 37.1432 10.7958 41.2043 14.857 45.2655 20.2567 47.5022 26.0001 47.5022 31.7435 47.5022 37.1432 45.2655 41.2043 41.2043 45.2656 37.1432 47.5022 31.7435 47.5022 26.0001 47.5022 20.2567 45.2656 14.857 41.2043 10.7958Z" fill="url(#fill2)" transform="matrix(1 0 0 1.01221 0 0.0337541)"/><path d="M26.0001 1.49933C12.4687 1.49933 1.49935 12.4687 1.49935 26.0001 1.49935 39.5314 12.4687 50.5008 26.0001 50.5008 39.5315 50.5008 50.5008 39.5314 50.5008 26.0001 50.5008 12.4687 39.5315 1.49933 26.0001 1.49933ZM10.7958 10.7958C14.857 6.73458 20.2567 4.49797 26.0001 4.49797 31.7435 4.49797 37.1432 6.73458 41.2043 10.7958 45.2655 14.857 47.5022 20.2567 47.5022 26.0001 47.5022 30.5154 46.1191 34.8178 43.5545 38.4248L8.4456 38.4248C5.88108 34.8178 4.49799 30.5154 4.49799 26.0001 4.49799 20.2567 6.73459 14.857 10.7958 10.7958ZM25.3492 47.4914C25.566 47.4954 25.7823 47.5014 26.0001 47.5014 26.2178 47.5014 26.4342 47.4954 26.651 47.4914 26.4345 47.4979 26.2176 47.5022 26.0001 47.5022 25.7826 47.5022 25.5657 47.4979 25.3492 47.4914Z" fill="#0F2D53" transform="matrix(1 0 0 1.01221 0 0.0337541)"/><path d="M28.6674 42.8864 23.3327 42.8864C22.5997 42.8864 22.0055 43.4806 22.0055 44.2137L22.0055 54.407C22.0055 55.14 22.5997 55.7342 23.3327 55.7342L28.6674 55.7342C29.4005 55.7342 29.9947 55.14 29.9947 54.407L29.9947 44.2137C29.9947 43.4806 29.4005 42.8864 28.6674 42.8864ZM29.1977 54.3605C29.1977 54.6536 28.9601 54.8913 28.6669 54.8913L23.4436 54.8913C23.1504 54.8913 22.9127 54.6536 22.9127 54.3605L22.9127 44.168C22.9127 43.8748 23.1504 43.6372 23.4436 43.6372L25.2622 43.6372 25.2622 44.6113 24.781 44.6113C24.7209 44.358 24.4945 44.169 24.2228 44.169 23.9053 44.169 23.6479 44.4264 23.6479 44.7439 23.6479 45.0616 23.9053 45.319 24.2228 45.319 24.4945 45.319 24.7208 45.13 24.781 44.8767L25.395 44.8767C25.4682 44.8767 25.5276 44.8173 25.5276 44.7439L25.5276 43.6372 25.9225 43.6372 25.9225 45.6694C25.6693 45.7295 25.4802 45.9558 25.4802 46.2276 25.4802 46.3167 25.5023 46.4001 25.5385 46.4755L24.5721 47.2588C24.4751 47.1839 24.3549 47.1377 24.2228 47.1377 23.9053 47.1377 23.6479 47.3951 23.6479 47.7126 23.6479 48.0303 23.9053 48.2877 24.2228 48.2877 24.5405 48.2877 24.7979 48.0303 24.7979 47.7126 24.7979 47.6235 24.7758 47.5401 24.7395 47.4648L25.706 46.6814C25.803 46.7563 25.9232 46.8025 26.0552 46.8025 26.3728 46.8025 26.6302 46.5451 26.6302 46.2276 26.6302 45.9558 26.4412 45.7295 26.1879 45.6694L26.1879 43.6372 26.5464 43.6372 26.5464 44.7439C26.5464 44.8173 26.6057 44.8767 26.6791 44.8767L27.2403 44.8767C27.2904 45.0872 27.4552 45.2522 27.6659 45.3021L27.6659 47.1546C27.4125 47.2147 27.2234 47.4411 27.2234 47.7126 27.2234 48.0303 27.4808 48.2877 27.7985 48.2877 28.116 48.2877 28.3734 48.0303 28.3734 47.7126 28.3734 47.4411 28.1844 47.2147 27.9311 47.1546L27.9311 45.3021C28.1844 45.2419 28.3734 45.0156 28.3734 44.7439 28.3734 44.4264 28.116 44.169 27.7985 44.169 27.5268 44.169 27.3004 44.358 27.2403 44.6113L26.8118 44.6113 26.8118 43.6372 28.6669 43.6372C28.9601 43.6372 29.1977 43.8748 29.1977 44.168L29.1977 54.3605Z" fill="#0F2D53" transform="matrix(1 0 0 1.01221 0 0.0337541)"/><path d="M28.6669 43.6372 26.8118 43.6372 26.8118 44.6113 27.2403 44.6113C27.3004 44.358 27.5268 44.169 27.7985 44.169 28.116 44.169 28.3734 44.4264 28.3734 44.7439 28.3734 45.0156 28.1844 45.2419 27.9311 45.3021L27.9311 47.1546C28.1844 47.2147 28.3734 47.4411 28.3734 47.7126 28.3734 48.0303 28.116 48.2877 27.7985 48.2877 27.4808 48.2877 27.2234 48.0303 27.2234 47.7126 27.2234 47.4411 27.4125 47.2147 27.6659 47.1546L27.6659 45.3021C27.4552 45.2522 27.2904 45.0872 27.2403 44.8767L26.6791 44.8767C26.6057 44.8767 26.5464 44.8173 26.5464 44.7439L26.5464 43.6372 26.1879 43.6372 26.1879 45.6694C26.4412 45.7295 26.6302 45.9558 26.6302 46.2276 26.6302 46.5451 26.3728 46.8025 26.0552 46.8025 25.9232 46.8025 25.803 46.7563 25.706 46.6814L24.7395 47.4648C24.7758 47.5401 24.7979 47.6235 24.7979 47.7126 24.7979 48.0303 24.5405 48.2877 24.2228 48.2877 23.9053 48.2877 23.6479 48.0303 23.6479 47.7126 23.6479 47.3951 23.9053 47.1377 24.2228 47.1377 24.3549 47.1377 24.4751 47.1839 24.5721 47.2588L25.5385 46.4755C25.5023 46.4001 25.4802 46.3167 25.4802 46.2276 25.4802 45.9558 25.6693 45.7295 25.9225 45.6694L25.9225 43.6372 25.5276 43.6372 25.5276 44.7439C25.5276 44.8173 25.4682 44.8767 25.395 44.8767L24.781 44.8767C24.7208 45.13 24.4945 45.319 24.2228 45.319 23.9053 45.319 23.6479 45.0616 23.6479 44.7439 23.6479 44.4264 23.9053 44.169 24.2228 44.169 24.4945 44.169 24.7209 44.358 24.781 44.6113L25.2622 44.6113 25.2622 43.6372 23.4436 43.6372C23.1504 43.6372 22.9127 43.8748 22.9127 44.168L22.9127 54.3605C22.9127 54.6536 23.1504 54.8913 23.4436 54.8913L28.6669 54.8913C28.9601 54.8913 29.1977 54.6536 29.1977 54.3605L29.1977 44.168C29.1977 43.8748 28.9601 43.6372 28.6669 43.6372ZM27.7978 52.4733 24.8339 54.0098C24.7956 54.0296 24.7537 54.0395 24.7117 54.0395 24.664 54.0395 24.6162 54.0266 24.574 54.001 24.4947 53.9528 24.4463 53.8668 24.4463 53.7741L24.4463 50.7011C24.4463 50.6084 24.4947 50.5225 24.574 50.4743 24.6532 50.4262 24.752 50.4226 24.8339 50.4654L27.7978 52.002C27.8858 52.0475 27.941 52.1385 27.941 52.2377 27.941 52.3368 27.8858 52.4277 27.7978 52.4733ZM28.6922 49.5401 23.4367 49.5401C23.3341 49.5401 23.2509 49.4568 23.2509 49.3542 23.2509 49.2516 23.3341 49.1684 23.4367 49.1684L28.6922 49.1684C28.7948 49.1684 28.8781 49.2516 28.8781 49.3542 28.8781 49.4568 28.7948 49.5401 28.6922 49.5401Z" fill="url(#fill3)" transform="matrix(1 0 0 1.01221 0 0.0337541)"/><path d="M28.6922 49.1684 23.4367 49.1684C23.3341 49.1684 23.2509 49.2516 23.2509 49.3542 23.2509 49.4568 23.3341 49.5401 23.4367 49.5401L28.6922 49.5401C28.7948 49.5401 28.8781 49.4568 28.8781 49.3542 28.8781 49.2516 28.7948 49.1684 28.6922 49.1684Z" fill="#0F2D53" transform="matrix(1 0 0 1.01221 0 0.0337541)"/><path d="M27.7978 52.002 24.8339 50.4654C24.752 50.4226 24.6532 50.4262 24.574 50.4743 24.4947 50.5225 24.4463 50.6084 24.4463 50.7011L24.4463 53.7741C24.4463 53.8668 24.4947 53.9528 24.574 54.001 24.6162 54.0266 24.664 54.0395 24.7117 54.0395 24.7537 54.0395 24.7956 54.0296 24.8339 54.0098L27.7978 52.4733C27.8858 52.4277 27.941 52.3368 27.941 52.2377 27.941 52.1385 27.8858 52.0475 27.7978 52.002Z" fill="#0F2D53" transform="matrix(1 0 0 1.01221 0 0.0337541)"/><path d="M24.5619 34.2366 24.5619 39.2429 7.18327 39.2429 7.18327 35.2889 15.5378 27.4766C16.3455 26.7112 16.8875 26.0574 17.1641 25.5154 17.4401 24.9733 17.5787 24.4263 17.5787 23.8731 17.5787 23.1508 17.334 22.5872 16.8453 22.1832 16.3559 21.7797 15.6439 21.5773 14.7087 21.5773 13.8797 21.5773 13.1193 21.7636 12.4288 22.1354 11.7378 22.5075 11.1692 23.0442 10.7228 23.7456L6.0354 21.1308C6.90675 19.6855 8.12897 18.5481 9.70248 17.7189 11.2754 16.8899 13.1352 16.4753 15.2828 16.4753 16.9832 16.4753 18.4874 16.7518 19.7948 17.3044 21.1023 17.8575 22.1225 18.6491 22.8559 19.6801 23.5894 20.7114 23.9561 21.9072 23.9561 23.2673 23.9561 24.4791 23.6956 25.622 23.1749 26.6952 22.6536 27.769 21.6493 28.9862 20.1615 30.3464L15.9523 34.2366 24.5619 34.2366Z" fill="#0F2D53" transform="matrix(1 0 0 1.01221 0 0.0337541)"/><path d="M42.9768 26.9663C44.4756 28.2419 45.225 29.9428 45.225 32.0683 45.225 33.4505 44.8687 34.7205 44.1569 35.8789 43.4443 37.0377 42.3601 37.9625 40.9043 38.653 39.4478 39.3437 37.6464 39.6895 35.4994 39.6895 33.9259 39.6895 32.3689 39.4982 30.8277 39.1154 29.2863 38.7328 27.9629 38.1907 26.8579 37.4893L29.1217 32.738C30.0147 33.3334 30.9977 33.7903 32.0716 34.1092 33.1447 34.428 34.224 34.5874 35.3081 34.5874 36.3923 34.5874 37.2582 34.3801 37.9068 33.9657 38.555 33.551 38.8795 32.9721 38.8795 32.2277 38.8795 31.4839 38.5606 30.9203 37.9228 30.5377 37.285 30.1551 36.158 29.9638 34.5428 29.9638L28.484 29.9638 29.6001 16.9217 43.822 16.9217 43.822 21.8006 34.8296 21.8006 34.5428 25.0531 36.0414 25.0531C39.1665 25.0531 41.4783 25.6909 42.9768 26.9663Z" fill="#0F2D53" transform="matrix(1 0 0 1.01221 0 0.0337541)"/></g></svg>