<?xml version="1.0" encoding="UTF-8"?>
<svg xmlns="http://www.w3.org/2000/svg" xmlns:xlink="http://www.w3.org/1999/xlink" width="24px" height="24px" viewBox="0 0 24 24" version="1.1">
<g id="surface1">
<path style="fill:none;stroke-width:2;stroke-linecap:round;stroke-linejoin:round;stroke:rgb(94.901961%,91.764706%,87.450981%);stroke-opacity:1;stroke-miterlimit:4;" d="M 17 12 L 17 17 M 13 17 L 13 15 M 3 15 L 5.828125 12.171875 M 8 7 C 6.34375 7 5 8.34375 5 10 C 5 11.65625 6.34375 13 8 13 C 9.65625 13 11 11.65625 11 10 C 11 8.34375 9.65625 7 8 7 Z M 8 7 "/>
<path style="fill:none;stroke-width:2;stroke-linecap:round;stroke-linejoin:round;stroke:rgb(94.901961%,91.764706%,87.450981%);stroke-opacity:1;stroke-miterlimit:4;" d="M 8 3 L 20 3 C 20.550781 3 21 3.449219 21 4 L 21 20 C 21 20.550781 20.550781 21 20 21 L 8 21 C 7.449219 21 7 20.550781 7 20 L 7 17 "/>
</g>
</svg>
